<svg xmlns="http://www.w3.org/2000/svg" xmlns:xlink="http://www.w3.org/1999/xlink" version="1.1" width="1000" height="1000" viewBox="0 0 1000 1000" xml:space="preserve">
<desc>Created with Fabric.js 3.5.0</desc>
<defs>
</defs>
<rect x="0" y="0" width="100%" height="100%" fill="#ffffff"/>
<g transform="matrix(0.5455 0 0 0.5455 60.4558 60.4558)" id="963932">
<g style="" vector-effect="non-scaling-stroke">
		<g transform="matrix(1 0 0 1 -0.0012 0)">
<path style="stroke: none; stroke-width: 1; stroke-dasharray: none; stroke-linecap: butt; stroke-dashoffset: 0; stroke-linejoin: miter; stroke-miterlimit: 4; is-custom-font: none; font-file-url: none; fill: rgb(98,99,124); fill-rule: nonzero; opacity: 1;" transform=" translate(-27.4988, -27.5)" d="M 0 27.6247 C 0 26.6469 0 25.6691 0 24.6913 C 0.679556 24.2416 1.35911 23.7918 2.178 23.2491 C 2.178 19.6216 2.18044 15.8009 2.17067 11.9778 C 2.17067 11.748 2.07044 11.5182 2.00689 11.2909 C 1.77467 10.4647 1.46178 9.65067 1.33222 8.80978 C 1.23444 8.18644 1.48133 7.51178 1.38356 6.88844 C 1.14156 5.31911 1.69889 4.12378 2.83556 3.09711 C 3.95022 2.08756 5.02089 1.034 6.11111 0 C 6.35556 0 6.6 0 6.84444 0 C 7.92489 1.04133 9.08356 2.01667 10.0564 3.15089 C 10.6896 3.88911 11.4889 4.88156 11.4449 5.72 C 11.3422 7.634 12.2784 9.70933 10.8167 11.4889 C 10.6724 11.6649 10.758 12.0413 10.758 12.3249 C 10.7556 15.664 10.7531 19.0031 10.758 22.3422 C 10.758 22.77 10.7971 23.1953 10.8142 23.5718 C 12.1709 23.5718 13.3711 23.5718 14.586 23.5718 C 14.586 22.4302 14.586 21.384 14.586 20.3549 C 12.5547 19.7193 12.4789 19.5091 12.4471 17.1356 C 12.4178 14.9013 14.0898 15.1384 15.5858 14.9844 C 14.1436 10.758 16.06 8.07156 19.3307 5.83489 C 22.0122 4.00889 24.5398 1.95556 27.1333 0 C 27.3778 0 27.6222 0 27.8667 0 C 27.9131 0.0635556 27.9498 0.146667 28.0109 0.190667 C 30.8562 2.29044 33.7089 4.38533 36.5518 6.48756 C 38.8618 8.19622 40.2844 10.3376 39.8224 13.3613 C 39.7442 13.8722 39.5804 14.3684 39.4582 14.8696 C 42.5431 15.6567 42.5431 15.6567 42.5431 17.9862 C 42.5431 19.4798 42.2009 19.8636 40.4384 20.3109 C 40.4384 21.384 40.4384 22.462 40.4384 23.5987 C 41.7144 23.5987 42.9122 23.5987 44.11 23.5987 C 44.1638 23.4178 44.2249 23.3053 44.2249 23.1929 C 44.2347 19.448 44.2396 15.7007 44.2347 11.9558 C 44.2347 11.7236 44.1467 11.4864 44.0904 11.2567 C 43.8802 10.4207 43.5967 9.59689 43.4696 8.74867 C 43.3767 8.12044 43.5551 7.45556 43.4818 6.82 C 43.3058 5.26778 43.8411 4.06022 44.9973 3.036 C 46.0876 2.068 47.1069 1.01444 48.1556 0 C 48.4 0 48.6444 0 48.8889 0 C 49.9498 1.00956 50.9862 2.04356 52.074 3.02133 C 53.4209 4.22889 54.2813 9.14956 53.4698 10.7458 C 53.1276 11.4229 52.888 12.2149 52.8489 12.9678 C 52.7584 14.7156 52.8196 16.4682 52.8196 18.2209 C 52.8196 20.0053 52.8196 21.7873 52.8196 23.2002 C 53.7289 23.8236 54.3644 24.2562 54.9976 24.6913 C 54.9976 25.6691 54.9976 26.6469 54.9976 27.6247 C 54.4744 28.0989 53.9513 28.5756 53.2864 29.1793 C 53.2864 29.1549 53.2767 29.3553 53.2889 29.5582 C 53.3549 30.7169 53.262 31.7729 51.9029 32.2153 C 51.7367 32.2691 51.5851 32.6553 51.5851 32.8876 C 51.5656 37.3609 51.5704 41.8342 51.5704 46.3613 C 53.6262 46.7598 53.262 48.3707 53.2938 49.4389 C 53.988 50.1136 54.494 50.6049 54.9976 51.0938 C 54.9976 52.3942 54.9976 53.6971 54.9976 55 C 36.6667 55 18.3333 55 0 55 C 0 53.614 0 52.2304 0 50.8493 C 0.532889 50.4484 1.06578 50.05 1.70378 49.5709 C 1.694 48.3022 1.44467 46.7476 3.39778 46.3467 C 3.39778 41.6509 3.39778 37.0236 3.39778 32.2813 C 1.408 31.9416 1.71356 30.3551 1.70378 29.1647 C 1.04378 28.5707 0.523111 28.0964 0 27.6247 Z M 10.318 46.3736 C 10.318 44.4107 10.2104 42.4991 10.3596 40.6071 C 10.4427 39.5609 10.7189 38.3656 11.3324 37.5613 C 12.2736 36.322 13.5569 35.332 14.7498 34.298 C 15.0016 34.0804 15.5418 33.968 15.8547 34.0804 C 18.3309 34.9629 20.6042 38.3827 20.5798 41.0642 C 20.5651 42.8047 20.5773 44.5476 20.5773 46.3564 C 21.2227 46.3564 21.7287 46.3564 22.3813 46.3564 C 22.3813 44.3862 22.2762 42.4698 22.4229 40.5729 C 22.506 39.5242 22.7724 38.3264 23.386 37.5222 C 24.3296 36.2853 25.6202 35.3027 26.8204 34.276 C 27.0673 34.0633 27.6149 33.9827 27.9253 34.1 C 30.4333 35.0411 32.6627 38.4267 32.6333 41.1058 C 32.6138 42.8438 32.6284 44.5818 32.6284 46.354 C 33.2738 46.354 33.7798 46.354 34.4202 46.354 C 34.4202 44.4156 34.3127 42.5407 34.4618 40.6878 C 34.5498 39.5976 34.7893 38.346 35.4224 37.5149 C 36.388 36.2462 37.7349 35.2636 38.9571 34.2027 C 39.1551 34.0291 39.5878 33.9704 39.8518 34.0511 C 42.1056 34.7404 44.682 38.3411 44.682 40.7367 C 44.682 42.5969 44.682 44.4571 44.682 46.332 C 45.342 46.332 45.8407 46.332 46.3589 46.332 C 46.3589 41.6142 46.3589 36.9893 46.3589 32.2911 C 33.7651 32.2911 21.2447 32.2911 8.65822 32.2911 C 8.65822 37.0138 8.65822 41.668 8.65822 46.3687 C 9.22044 46.3736 9.68978 46.3736 10.318 46.3736 Z M 27.4316 2.10222 C 26.7056 2.65956 25.9551 3.27556 25.168 3.83778 C 23.1831 5.25556 21.1396 6.59756 19.1962 8.06667 C 16.8887 9.812 16.2116 11.9704 17.1111 14.1264 C 17.3898 14.7987 17.7687 15.1067 18.5631 15.1018 C 24.5007 15.0651 30.4407 15.0578 36.3782 15.1067 C 37.3144 15.114 37.6811 14.6911 37.9549 13.9382 C 38.7127 11.8384 38.1016 9.81689 35.9236 8.17178 C 33.1711 6.094 30.3136 4.15067 27.4316 2.10222 Z M 1.76978 53.2082 C 18.986 53.2082 36.102 53.2082 53.2327 53.2082 C 53.2327 52.6509 53.2327 52.1791 53.2327 51.6389 C 36.0604 51.6389 18.942 51.6389 1.76978 51.6389 C 1.76978 52.1742 1.76978 52.646 1.76978 53.2082 Z M 53.2302 25.4296 C 36.014 25.4296 18.9004 25.4296 1.76978 25.4296 C 1.76978 26.004 1.76978 26.4782 1.76978 27.0282 C 18.9444 27.0282 36.0604 27.0282 53.2302 27.0282 C 53.2302 26.4758 53.2302 26.0016 53.2302 25.4296 Z M 3.48089 30.4407 C 19.5678 30.4407 35.5422 30.4407 51.5118 30.4407 C 51.5118 29.8687 51.5118 29.3944 51.5118 28.8616 C 35.4787 28.8616 19.5067 28.8616 3.48089 28.8616 C 3.48089 29.4164 3.48089 29.8907 3.48089 30.4407 Z M 3.48089 49.7787 C 19.558 49.7787 35.5324 49.7787 51.5142 49.7787 C 51.5142 49.2164 51.5142 48.7422 51.5142 48.1971 C 35.4836 48.1971 19.5091 48.1971 3.48089 48.1971 C 3.48089 48.7422 3.48089 49.2164 3.48089 49.7787 Z M 30.9833 46.3882 C 30.9833 44.7358 30.8538 43.1836 31.0127 41.6631 C 31.2816 39.0793 29.7587 37.5784 27.984 36.1924 C 27.7884 36.0409 27.2653 35.9798 27.1504 36.1069 C 26.1067 37.2704 24.5618 38.3558 24.2464 39.7173 C 23.7576 41.822 24.1169 44.1247 24.1169 46.3907 C 26.4 46.3882 28.5902 46.3882 30.9833 46.3882 Z M 43.0027 46.3589 C 43.0027 44.6453 42.8829 43.0491 43.0296 41.4773 C 43.2667 38.9327 41.6851 37.5247 39.9789 36.1533 C 39.82 36.0262 39.4582 35.9236 39.3336 36.0116 C 37.9402 37.0162 36.3831 38.0624 36.1704 39.8591 C 35.9211 41.9736 36.1118 44.1393 36.1118 46.3564 C 38.4316 46.3589 40.6462 46.3589 43.0027 46.3589 Z M 12.0389 46.3613 C 14.3562 46.3613 16.5684 46.3613 18.9347 46.3613 C 18.9347 44.7529 18.8027 43.2056 18.964 41.6876 C 19.2353 39.1209 17.7907 37.5858 15.9793 36.2193 C 15.7716 36.0629 15.2998 35.9651 15.1384 36.0873 C 13.8111 37.1018 12.2931 38.1382 12.0951 39.886 C 11.8556 42.0004 12.0389 44.1638 12.0389 46.3613 Z M 38.6222 20.2351 C 31.1349 20.2351 23.7967 20.2351 16.4022 20.2351 C 16.4022 21.3987 16.4022 22.4718 16.4022 23.5693 C 23.848 23.5693 31.2156 23.5693 38.6222 23.5693 C 38.6222 22.4204 38.6222 21.3767 38.6222 20.2351 Z M 3.95267 11.6258 C 3.95267 15.6518 3.95267 19.6044 3.95267 23.5742 C 5.68089 23.5742 7.31867 23.5742 8.932 23.5742 C 8.932 19.5262 8.932 15.5736 8.932 11.6258 C 7.21356 11.6258 5.60511 11.6258 3.95267 11.6258 Z M 46.0289 11.6184 C 46.0289 15.6884 46.0289 19.6142 46.0289 23.5938 C 47.7351 23.5938 49.3753 23.5938 51.0424 23.5938 C 51.0424 19.5629 51.0424 15.6102 51.0424 11.6184 C 49.3362 11.6184 47.7278 11.6184 46.0289 11.6184 Z M 14.2364 18.458 C 23.1 18.458 31.9073 18.458 40.7684 18.458 C 40.7684 17.8762 40.7684 17.3629 40.7684 16.7811 C 31.9122 16.7811 23.1024 16.7811 14.2364 16.7811 C 14.2364 17.3678 14.2364 17.8787 14.2364 18.458 Z M 5.23356 32.2862 C 5.23356 37.0602 5.23356 41.7144 5.23356 46.3687 C 5.80067 46.3687 6.27244 46.3687 6.80289 46.3687 C 6.80289 41.6484 6.80289 36.9942 6.80289 32.2862 C 6.25778 32.2862 5.78356 32.2862 5.23356 32.2862 Z M 48.224 32.2838 C 48.224 37.0676 48.224 41.7193 48.224 46.3662 C 48.7984 46.3662 49.2702 46.3662 49.786 46.3662 C 49.786 41.646 49.786 36.9918 49.786 32.2838 C 49.2409 32.2838 48.7691 32.2838 48.224 32.2838 Z M 6.45089 2.01422 C 5.28733 3.61289 3.26089 4.19222 2.948 6.38 C 5.29467 6.38 7.53622 6.38 9.91467 6.38 C 9.658 4.17511 7.612 3.61289 6.45089 2.01422 Z M 48.5589 2.04356 C 47.3709 3.608 45.3616 4.20444 45.0584 6.38489 C 47.4393 6.38489 49.6833 6.38489 52.0838 6.38489 C 51.7098 4.22889 49.7518 3.59089 48.5589 2.04356 Z M 9.83644 9.856 C 9.83644 9.43311 9.83644 9.04933 9.83644 8.66067 C 7.53133 8.66067 5.28489 8.66067 2.96756 8.66067 C 2.99933 9.10311 3.02622 9.45022 3.05556 9.856 C 5.34356 9.856 7.55333 9.856 9.83644 9.856 Z M 45.2222 8.63378 C 45.012 9.29867 44.8678 9.90244 45.8529 9.90489 C 47.8036 9.91222 49.7542 9.88533 51.7049 9.86089 C 51.8027 9.85844 51.898 9.73378 52.0227 9.64578 C 52.0056 9.328 51.9884 9.01022 51.9689 8.63133 C 49.7053 8.63378 47.4858 8.63378 45.2222 8.63378 Z" stroke-linecap="round"/>
</g>
		<g transform="matrix(1 0 0 1 0.0165 13.7122)">
<path style="stroke: none; stroke-width: 1; stroke-dasharray: none; stroke-linecap: butt; stroke-dashoffset: 0; stroke-linejoin: miter; stroke-miterlimit: 4; is-custom-font: none; font-file-url: none; fill: rgb(255,102,18); fill-rule: nonzero; opacity: 1;" transform=" translate(-27.5164, -41.2121)" d="M 30.9834 46.3884 C 28.5902 46.3884 26.3976 46.3884 24.1169 46.3884 C 24.1169 44.1224 23.7576 41.8198 24.2465 39.7151 C 24.5618 38.356 26.1067 37.2706 27.1505 36.1046 C 27.2653 35.9775 27.7909 36.0386 27.984 36.1902 C 29.7587 37.5786 31.2791 39.0771 31.0127 41.6609 C 30.8538 43.1838 30.9834 44.736 30.9834 46.3884 Z" stroke-linecap="round"/>
</g>
		<g transform="matrix(1 0 0 1 12.0501 13.6695)">
<path style="stroke: none; stroke-width: 1; stroke-dasharray: none; stroke-linecap: butt; stroke-dashoffset: 0; stroke-linejoin: miter; stroke-miterlimit: 4; is-custom-font: none; font-file-url: none; fill: rgb(255,102,18); fill-rule: nonzero; opacity: 1;" transform=" translate(-39.5501, -41.1695)" d="M 43.0027 46.3586 C 40.6462 46.3586 38.4315 46.3586 36.1142 46.3586 C 36.1142 44.1415 35.9235 41.9757 36.1729 39.8613 C 36.3831 38.0622 37.9426 37.0184 39.336 36.0137 C 39.4582 35.9257 39.8224 36.026 39.9813 36.1555 C 41.6875 37.5268 43.2691 38.9349 43.032 41.4795 C 42.8829 43.0489 43.0027 44.6451 43.0027 46.3586 Z" stroke-linecap="round"/>
</g>
		<g transform="matrix(1 0 0 1 -12.0159 13.6993)">
<path style="stroke: none; stroke-width: 1; stroke-dasharray: none; stroke-linecap: butt; stroke-dashoffset: 0; stroke-linejoin: miter; stroke-miterlimit: 4; is-custom-font: none; font-file-url: none; fill: rgb(255,102,18); fill-rule: nonzero; opacity: 1;" transform=" translate(-15.4841, -41.1992)" d="M 12.0389 46.3613 C 12.0389 44.1638 11.8555 42.0004 12.0951 39.8884 C 12.2955 38.1406 13.8111 37.1042 15.1384 36.0897 C 15.2998 35.9675 15.7715 36.0653 15.9793 36.2217 C 17.7907 37.5882 19.2329 39.1233 18.964 41.69 C 18.8027 43.208 18.9347 44.7553 18.9347 46.3638 C 16.5684 46.3613 14.3562 46.3613 12.0389 46.3613 Z" stroke-linecap="round"/>
</g>
		<g transform="matrix(1 0 0 1 21.0276 -9.8881)">
<path style="stroke: none; stroke-width: 1; stroke-dasharray: none; stroke-linecap: butt; stroke-dashoffset: 0; stroke-linejoin: miter; stroke-miterlimit: 4; is-custom-font: none; font-file-url: none; fill: rgb(255,255,255); fill-rule: nonzero; opacity: 1;" transform=" translate(-48.5276, -17.6118)" d="M 49.3802 15.109 C 49.3729 15.109 49.3655 15.109 49.3607 15.109 C 49.3607 14.7472 49.4609 14.3439 49.3313 14.0384 C 49.2189 13.7695 48.8571 13.4517 48.5907 13.4395 C 48.3242 13.4248 47.8304 13.7279 47.7987 13.9479 C 47.6935 14.6519 47.6862 15.3926 47.7864 16.0965 C 47.8207 16.3312 48.3315 16.6979 48.5564 16.6539 C 48.8644 16.5952 49.1773 16.2432 49.3582 15.9401 C 49.478 15.7299 49.3802 15.3901 49.3802 15.109 Z M 49.3729 20.1591 C 49.3802 20.1591 49.3851 20.1591 49.3924 20.1591 C 49.3924 19.9587 49.4658 19.7118 49.3778 19.5651 C 49.1602 19.2009 48.8693 18.8807 48.6078 18.5409 C 48.3022 18.8807 47.8549 19.1765 47.7302 19.5749 C 47.5811 20.0491 47.6178 20.6358 47.7571 21.1198 C 47.8427 21.4107 48.2753 21.7847 48.554 21.7847 C 48.8253 21.7871 49.1871 21.4082 49.346 21.1076 C 49.478 20.8582 49.3729 20.4818 49.3729 20.1591 Z" stroke-linecap="round"/>
</g>
		<g transform="matrix(1 0 0 1 -6.3812 -16.8445)">
<path style="stroke: none; stroke-width: 1; stroke-dasharray: none; stroke-linecap: butt; stroke-dashoffset: 0; stroke-linejoin: miter; stroke-miterlimit: 4; is-custom-font: none; font-file-url: none; fill: rgb(98,99,124); fill-rule: nonzero; opacity: 1;" transform=" translate(-21.1189, -10.6555)" d="M 18.2234 12.3641 C 18.7269 11.4768 18.9836 10.6408 19.5385 10.1324 C 20.548 9.20597 21.7091 8.42866 22.8703 7.69045 C 23.1074 7.5389 23.6256 7.83223 24.0143 7.92023 C 23.914 8.30888 23.9385 8.84176 23.6867 9.05687 C 22.8898 9.74374 21.9414 10.2546 21.1494 10.9488 C 20.7289 11.3179 20.3354 11.8924 20.2498 12.4277 C 20.1471 13.0705 20.2034 13.8039 19.3649 13.6401 C 18.9469 13.5545 18.6487 12.8628 18.2234 12.3641 Z" stroke-linecap="round"/>
</g>
		<g transform="matrix(1 0 0 1 2.572 -5.6155)">
<path style="stroke: none; stroke-width: 1; stroke-dasharray: none; stroke-linecap: butt; stroke-dashoffset: 0; stroke-linejoin: miter; stroke-miterlimit: 4; is-custom-font: none; font-file-url: none; fill: rgb(98,99,124); fill-rule: nonzero; opacity: 1;" transform=" translate(-30.0719, -21.8845)" d="M 30.2036 21.0396 C 30.5531 21.064 30.9345 20.9858 31.1789 21.1324 C 31.4429 21.2913 31.7045 21.6481 31.7313 21.9438 C 31.7533 22.1736 31.4429 22.6306 31.24 22.655 C 30.4896 22.7454 29.7147 22.7601 28.9667 22.6623 C 28.7369 22.633 28.3996 22.1442 28.4118 21.8827 C 28.424 21.6139 28.7613 21.2473 29.0425 21.1324 C 29.392 20.9907 29.8296 21.0591 30.2036 21.0396 Z" stroke-linecap="round"/>
</g>
		<g transform="matrix(1 0 0 1 7.7324 -5.5453)">
<path style="stroke: none; stroke-width: 1; stroke-dasharray: none; stroke-linecap: butt; stroke-dashoffset: 0; stroke-linejoin: miter; stroke-miterlimit: 4; is-custom-font: none; font-file-url: none; fill: rgb(98,99,124); fill-rule: nonzero; opacity: 1;" transform=" translate(-35.2324, -21.9547)" d="M 35.1193 22.8164 C 34.7013 22.7406 34.2393 22.77 33.9362 22.5646 C 33.7089 22.4106 33.5524 21.6944 33.5915 21.6749 C 34.0902 21.4207 34.6329 21.0858 35.1609 21.0931 C 35.7353 21.1005 36.3073 21.4402 36.8793 21.6333 C 36.7644 21.9535 36.7351 22.4473 36.5151 22.5573 C 36.1069 22.7626 35.5862 22.7431 35.1193 22.8164 Z" stroke-linecap="round"/>
</g>
		<g transform="matrix(1 0 0 1 -7.7435 -5.6149)">
<path style="stroke: none; stroke-width: 1; stroke-dasharray: none; stroke-linecap: butt; stroke-dashoffset: 0; stroke-linejoin: miter; stroke-miterlimit: 4; is-custom-font: none; font-file-url: none; fill: rgb(98,99,124); fill-rule: nonzero; opacity: 1;" transform=" translate(-19.7565, -21.885)" d="M 19.6704 22.7333 C 19.3869 22.7333 19.0422 22.836 18.8344 22.7089 C 18.5313 22.5231 18.326 22.176 18.0815 21.8973 C 18.5362 21.6162 18.9713 21.1445 19.448 21.0956 C 20.174 21.0223 21.1909 20.6947 21.428 21.8631 C 21.4744 22.0953 21.054 22.5451 20.7484 22.6942 C 20.4551 22.8384 20.0346 22.726 19.6704 22.726 C 19.6704 22.7284 19.6704 22.7309 19.6704 22.7333 Z" stroke-linecap="round"/>
</g>
		<g transform="matrix(1 0 0 1 -2.5756 -5.5656)">
<path style="stroke: none; stroke-width: 1; stroke-dasharray: none; stroke-linecap: butt; stroke-dashoffset: 0; stroke-linejoin: miter; stroke-miterlimit: 4; is-custom-font: none; font-file-url: none; fill: rgb(98,99,124); fill-rule: nonzero; opacity: 1;" transform=" translate(-24.9244, -21.9345)" d="M 24.8258 22.7629 C 24.5007 22.7433 24.1218 22.824 23.8675 22.6798 C 23.5938 22.5258 23.3078 22.1835 23.2687 21.8902 C 23.2393 21.6653 23.562 21.1984 23.7673 21.174 C 24.5227 21.0836 25.3049 21.0713 26.0578 21.1691 C 26.2802 21.1984 26.6029 21.7118 26.5809 21.9758 C 26.5564 22.2422 26.1995 22.5795 25.9135 22.692 C 25.5958 22.8166 25.1924 22.7213 24.8258 22.7213 C 24.8258 22.736 24.8258 22.7482 24.8258 22.7629 Z" stroke-linecap="round"/>
</g>
		<g transform="matrix(1 0 0 1 -20.978 -13.1414)">
<path style="stroke: none; stroke-width: 1; stroke-dasharray: none; stroke-linecap: butt; stroke-dashoffset: 0; stroke-linejoin: miter; stroke-miterlimit: 4; is-custom-font: none; font-file-url: none; fill: rgb(98,99,124); fill-rule: nonzero; opacity: 1;" transform=" translate(-6.5219, -14.3586)" d="M 5.66142 14.3195 C 5.66142 14.0359 5.55875 13.6888 5.68586 13.486 C 5.89364 13.1584 6.22363 12.7771 6.55607 12.7135 C 6.76874 12.6744 7.22095 13.1291 7.31384 13.4371 C 7.44828 13.882 7.46295 14.4295 7.32362 14.8719 C 7.19407 15.2923 6.80296 15.6297 6.52674 16.0061 C 6.23586 15.6468 5.91808 15.3046 5.6712 14.9184 C 5.5832 14.7741 5.66142 14.5224 5.66142 14.3195 Z" stroke-linecap="round"/>
</g>
		<g transform="matrix(1 0 0 1 -21.0887 -18.1599)">
<path style="stroke: none; stroke-width: 1; stroke-dasharray: none; stroke-linecap: butt; stroke-dashoffset: 0; stroke-linejoin: miter; stroke-miterlimit: 4; is-custom-font: none; font-file-url: none; fill: rgb(98,99,124); fill-rule: nonzero; opacity: 1;" transform=" translate(-6.4113, -9.3401)" d="M 5.62225 9.29886 C 5.79092 8.75863 5.83248 8.23552 6.1087 7.90307 C 6.25048 7.73196 7.12559 7.87863 7.13048 7.92507 C 7.20625 8.85152 7.22336 9.78531 7.16714 10.7118 C 7.1647 10.7729 6.24803 10.944 6.16003 10.8046 C 5.87403 10.3622 5.78114 9.79997 5.62225 9.29886 Z" stroke-linecap="round"/>
</g>
		<g transform="matrix(1 0 0 1 21.0652 -12.4544)">
<path style="stroke: none; stroke-width: 1; stroke-dasharray: none; stroke-linecap: butt; stroke-dashoffset: 0; stroke-linejoin: miter; stroke-miterlimit: 4; is-custom-font: none; font-file-url: none; fill: rgb(98,99,124); fill-rule: nonzero; opacity: 1;" transform=" translate(-48.5652, -15.0456)" d="M 49.3803 15.1091 C 49.3803 15.3902 49.4805 15.7299 49.3558 15.9377 C 49.1749 16.2408 48.862 16.5929 48.554 16.6515 C 48.3267 16.6931 47.8158 16.3288 47.784 16.0942 C 47.6838 15.3902 47.6887 14.6495 47.7963 13.9455 C 47.828 13.7279 48.3218 13.4224 48.5883 13.437 C 48.8547 13.4517 49.2165 13.767 49.3289 14.0359 C 49.4585 14.3439 49.3583 14.7448 49.3583 15.1066 C 49.3656 15.1091 49.3729 15.1091 49.3803 15.1091 Z" stroke-linecap="round"/>
</g>
		<g transform="matrix(1 0 0 1 21.0276 -7.3344)">
<path style="stroke: none; stroke-width: 1; stroke-dasharray: none; stroke-linecap: butt; stroke-dashoffset: 0; stroke-linejoin: miter; stroke-miterlimit: 4; is-custom-font: none; font-file-url: none; fill: rgb(98,99,124); fill-rule: nonzero; opacity: 1;" transform=" translate(-48.5276, -20.1656)" d="M 49.3729 20.1595 C 49.3729 20.4822 49.478 20.8587 49.346 21.1105 C 49.1895 21.4087 48.8253 21.7876 48.554 21.7876 C 48.2753 21.7852 47.8402 21.4136 47.7571 21.1227 C 47.6178 20.6387 47.5811 20.0495 47.7302 19.5777 C 47.8549 19.1817 48.3022 18.8859 48.6078 18.5437 C 48.8693 18.881 49.1627 19.2013 49.3778 19.568 C 49.4658 19.7171 49.3924 19.9615 49.3924 20.162 C 49.3851 20.1595 49.3802 20.1595 49.3729 20.1595 Z" stroke-linecap="round"/>
</g>
</g>
</g>
</svg>